HIERARCHY
ROOT Hips
{
 OFFSET 0.000000 0.000000 0.000000
 CHANNELS 6 Xposition Yposition Zposition Yrotation Xrotation Zrotation
 JOINT Chest
 {
  OFFSET 0.000000 9.585900 0.002600
  CHANNELS 3 Yrotation Xrotation Zrotation
  JOINT Chest2
  {
   OFFSET 0.000000 9.601200 -0.005300
   CHANNELS 3 Yrotation Xrotation Zrotation
   JOINT Chest3
   {
    OFFSET 0.000000 9.561800 0.000000
    CHANNELS 3 Yrotation Xrotation Zrotation
    JOINT Chest4
    {
     OFFSET 0.000000 9.552100 0.000000
     CHANNELS 3 Yrotation Xrotation Zrotation
     JOINT Neck
     {
      OFFSET 0.000000 14.453000 0.000000
      CHANNELS 3 Yrotation Xrotation Zrotation
      JOINT Head
      {
       OFFSET 0.000000 8.936500 -0.011300
       CHANNELS 3 Yrotation Xrotation Zrotation
       End Site
       {
        OFFSET 0.000000 17.073600 -0.006000
       }
      }
     }
     JOINT RightCollar
     {
      OFFSET -2.921100 9.558500 0.000000
      CHANNELS 3 Yrotation Xrotation Zrotation
      JOINT RightShoulder
      {
       OFFSET -13.519700 0.000000 0.000000
       CHANNELS 3 Yrotation Xrotation Zrotation
       JOINT RightElbow
       {
        OFFSET 0.000000 -29.696600 0.000000
        CHANNELS 3 Yrotation Xrotation Zrotation
        JOINT RightWrist
        {
         OFFSET 0.000000 -24.004700 0.000000
         CHANNELS 3 Yrotation Xrotation Zrotation
         End Site
         {
          OFFSET 0.000000 -17.728500 0.000000
         }
        }
       }
      }
     }
     JOINT LeftCollar
     {
      OFFSET 2.921100 9.558500 0.000000
      CHANNELS 3 Yrotation Xrotation Zrotation
      JOINT LeftShoulder
      {
       OFFSET 13.519700 0.000000 0.000000
       CHANNELS 3 Yrotation Xrotation Zrotation
       JOINT LeftElbow
       {
        OFFSET 0.000000 -29.696600 0.000000
        CHANNELS 3 Yrotation Xrotation Zrotation
        JOINT LeftWrist
        {
         OFFSET 0.000000 -24.004700 0.000000
         CHANNELS 3 Yrotation Xrotation Zrotation
         End Site
         {
          OFFSET 0.000000 -17.728500 0.000000
         }
        }
       }
      }
     }
    }
   }
  }
 }
 JOINT RightHip
 {
  OFFSET -7.771700 -0.012900 -0.001300
  CHANNELS 3 Yrotation Xrotation Zrotation
  JOINT RightKnee
  {
   OFFSET 0.000000 -40.869800 0.001200
   CHANNELS 3 Yrotation Xrotation Zrotation
   JOINT RightAnkle
   {
    OFFSET 0.000000 -39.717900 0.002100
    CHANNELS 3 Yrotation Xrotation Zrotation
    JOINT RightToe
    {
     OFFSET 0.000000 -4.965400 11.033500
     CHANNELS 3 Yrotation Xrotation Zrotation
     End Site
     {
      OFFSET 0.000000 -1.423100 5.872300
     }
    }
   }
  }
 }
 JOINT LeftHip
 {
  OFFSET 7.771700 -0.012900 -0.001300
  CHANNELS 3 Yrotation Xrotation Zrotation
  JOINT LeftKnee
  {
   OFFSET 0.000000 -40.869800 0.001200
   CHANNELS 3 Yrotation Xrotation Zrotation
   JOINT LeftAnkle
   {
    OFFSET 0.000000 -39.717900 0.002100
    CHANNELS 3 Yrotation Xrotation Zrotation
    JOINT LeftToe
    {
     OFFSET 0.000000 -4.965400 11.033500
     CHANNELS 3 Yrotation Xrotation Zrotation
     End Site
     {
      OFFSET 0.000000 -1.423100 5.872300
     }
    }
   }
  }
 }
}
MOTION
Frames: 15
Frame Time: 0.008333
-14.185637 57.657883 67.698144 175.591027 -36.459083 -0.261844 2.641448 20.427087 5.494643 0.244387 2.752777 0.488845 0.411201 4.490541 0.804375 2.055479 17.734089 3.465085 -0.701492 23.537075 -2.279360 -0.682224 7.951983 -3.907709 8.135710 3.029707 -3.256640 26.946736 -37.348389 -20.618577 -167.214186 -45.672131 -173.303418 7.309669 4.138176 -31.567126 -7.065306 -3.533675 -2.823315 -7.568869 -33.533083 -3.906522 169.647644 -50.758121 171.463102 -7.892063 -3.135930 15.886845 10.820494 -35.757680 -5.968380 -5.664913 68.006342 -5.385234 4.210046 10.196349 8.131985 -0.134980 -6.100167 0.663237 -10.895346 -41.083071 2.066221 28.094928 59.755993 25.976679 -8.604685 37.576735 -0.390010 0.453189 -17.619293 -6.397056
-14.191847 57.656267 67.696220 175.600325 -36.454156 -0.208689 2.607638 20.433409 5.436559 0.244809 2.752110 0.489418 0.411943 4.489529 0.805356 2.059184 17.731633 3.469726 -0.708309 23.530195 -2.292163 -0.680403 7.883920 -3.923474 8.131704 3.005041 -3.261107 26.921907 -37.345446 -20.611000 -167.206229 -45.669179 -173.298246 7.322346 4.163871 -31.541574 -7.075537 -3.563865 -2.804649 -7.579990 -33.529535 -3.883352 169.641794 -50.761481 171.474550 -7.882316 -3.132069 15.878571 10.863057 -35.768278 -6.049756 -5.677643 68.049499 -5.414513 4.234226 10.166462 8.164977 -0.153063 -6.100287 0.654627 -10.859195 -41.102768 1.988338 28.092665 59.757331 26.008255 -8.733136 37.567537 -0.527356 0.538009 -17.614525 -6.370090
-14.192157 57.655317 67.693960 175.589804 -36.450159 -0.182560 2.605764 20.434675 5.417478 0.241030 2.755895 0.493424 0.412345 4.489220 0.806673 2.061551 17.730514 3.475199 -0.709075 23.511464 -2.302910 -0.686526 7.841840 -3.938348 8.110063 2.956750 -3.271992 26.885710 -37.340286 -20.595935 -167.198383 -45.669753 -173.283078 7.333777 4.210062 -31.505754 -7.079733 -3.594230 -2.790857 -7.593739 -33.527156 -3.859553 169.638508 -50.765500 171.494422 -7.870952 -3.135007 15.860975 10.889293 -35.779115 -6.082191 -5.684153 68.074675 -5.431374 4.266378 10.151839 8.193939 -0.177186 -6.104631 0.643083 -10.841210 -41.113975 1.962426 28.099174 59.757420 26.027043 -8.756764 37.591428 -0.538918 0.560317 -17.642891 -6.388968
-14.184171 57.654570 67.692281 175.568372 -36.442453 -0.203087 2.632629 20.430034 5.455012 0.234636 2.759623 0.498449 0.412291 4.489269 0.808146 2.065054 17.726544 3.471467 -0.708078 23.497206 -2.304304 -0.693981 7.806011 -3.953407 8.100343 2.938338 -3.278782 26.886220 -37.329746 -20.590662 -167.213562 -45.667689 -173.268224 7.335117 4.223091 -31.495544 -7.080454 -3.609553 -2.784968 -7.611033 -33.529969 -3.831410 169.643807 -50.759764 171.480012 -7.858903 -3.125751 15.883347 10.889502 -35.796883 -6.043864 -5.702794 68.079882 -5.451012 4.288512 10.157728 8.210973 -0.197654 -6.115077 0.634545 -10.867728 -41.122419 2.005771 28.128917 59.758077 26.057639 -8.682401 37.640026 -0.455972 0.514215 -17.696784 -6.436244
-14.184282 57.654477 67.689230 175.570531 -36.436457 -0.191663 2.615170 20.432802 5.443510 0.235015 2.760318 0.502379 0.412150 4.489475 0.809714 2.066824 17.722551 3.465684 -0.710817 23.481567 -2.304778 -0.697662 7.771164 -3.972342 8.099376 2.931081 -3.287693 26.863983 -37.343666 -20.591515 -167.176518 -45.672890 -173.290270 7.354076 4.229729 -31.488232 -7.080104 -3.624372 -2.779420 -7.606740 -33.525553 -3.833797 169.657504 -50.742445 171.420764 -7.846452 -3.109027 15.918408 10.893225 -35.801696 -6.067486 -5.714492 68.093463 -5.476084 4.340695 10.131087 8.254133 -0.245407 -6.107826 0.612624 -10.879912 -41.143459 1.981948 28.174826 59.758582 26.120079 -8.683682 37.682802 -0.444946 0.517270 -17.754388 -6.471804
-14.183441 57.654595 67.686175 175.573820 -36.427888 -0.189079 2.588640 20.441509 5.449554 0.244707 2.752183 0.492946 0.411955 4.489660 0.811254 2.061462 17.729468 3.492863 -0.718784 23.456959 -2.341044 -0.702722 7.736515 -3.992618 8.098565 2.897988 -3.332101 26.831732 -37.346772 -20.591762 -167.134659 -45.681085 -173.315023 7.366170 4.225904 -31.494778 -7.089729 -3.687382 -2.767414 -7.581906 -33.503598 -3.833734 169.644364 -50.722810 171.441307 -7.831803 -3.129644 15.897715 10.875343 -35.780756 -6.067116 -5.709172 68.061994 -5.499676 4.388144 10.059006 8.302812 -0.294205 -6.042161 0.589823 -10.888650 -41.157211 1.972808 28.227436 59.756312 26.204675 -8.802538 37.655868 -0.559123 0.576057 -17.746084 -6.452300
-14.175838 57.655634 67.682596 175.566158 -36.424293 -0.222368 2.602194 20.439828 5.491195 0.244606 2.752216 0.493416 0.403472 4.491321 0.816197 2.064233 17.728818 3.494610 -0.717182 23.441160 -2.345787 -0.706657 7.726560 -4.008626 8.083441 2.850522 -3.339794 26.834208 -37.312777 -20.580698 -167.147296 -45.678044 -173.303097 7.375429 4.218540 -31.505654 -7.098967 -3.717442 -2.756005 -7.618213 -33.514214 -3.757397 169.625352 -50.723160 171.528637 -7.826784 -3.135292 15.900147 10.848869 -35.791193 -6.017929 -5.735168 68.063398 -5.532426 4.426077 10.061733 8.325252 -0.321342 -6.052213 0.575924 -10.932639 -41.159352 2.023708 28.269948 59.758018 26.247834 -8.741591 37.685723 -0.499717 0.531708 -17.785393 -6.483863
-14.173636 57.656209 67.679296 175.567082 -36.412613 -0.231232 2.596584 20.431683 5.500150 0.244404 2.752135 0.493844 0.397981 4.490240 0.818061 2.071168 17.728260 3.491202 -0.732960 23.410223 -2.332013 -0.697263 7.734484 -4.039044 8.076614 2.834174 -3.342794 26.797327 -37.344012 -20.590570 -167.160875 -45.666794 -173.296424 7.315106 4.232622 -31.502648 -7.116976 -3.745618 -2.734197 -7.587249 -33.496013 -3.776156 169.640055 -50.674894 171.473546 -7.821593 -3.176092 15.847225 10.831616 -35.802591 -6.002170 -5.751888 68.063802 -5.560136 4.428921 10.060456 8.330644 -0.319684 -6.054196 0.572591 -10.954566 -41.173868 2.041226 28.299634 59.762445 26.280162 -8.740322 37.690669 -0.499647 0.526382 -17.798920 -6.490773
-14.166944 57.659103 67.673227 175.549972 -36.421426 -0.257983 2.606722 20.443484 5.537519 0.229392 2.754335 0.499335 0.424330 4.485530 0.809069 2.057007 17.726294 3.504751 -0.734658 23.394266 -2.346850 -0.702850 7.672804 -4.071995 8.075743 2.805494 -3.359407 26.788072 -37.338564 -20.586859 -167.185295 -45.650957 -173.279211 7.331697 4.217344 -31.503773 -7.120277 -3.773809 -2.729463 -7.596604 -33.491846 -3.747978 169.654471 -50.628178 171.458181 -7.818555 -3.189199 15.814781 10.817353 -35.797809 -5.954793 -5.775286 68.061686 -5.578847 4.435291 10.075331 8.336135 -0.320998 -6.070427 0.564110 -10.977326 -41.157230 2.081626 28.367521 59.765941 26.380210 -8.827754 37.631755 -0.590502 0.554983 -17.766036 -6.472101
-14.164759 57.660195 67.669150 175.536434 -36.410257 -0.264950 2.609731 20.439193 5.552681 0.226208 2.747747 0.498116 0.425691 4.486969 0.811886 2.031873 17.703938 3.522799 -0.727102 23.396154 -2.379545 -0.699980 7.660358 -4.094616 8.102226 2.800146 -3.390421 26.768160 -37.338183 -20.581685 -167.174583 -45.652551 -173.287722 7.388546 4.184773 -31.500200 -7.106172 -3.786879 -2.742705 -7.653237 -33.513294 -3.681624 169.675674 -50.612337 171.487648 -7.818624 -3.196059 15.780909 10.825802 -35.808569 -5.952292 -5.795734 68.061494 -5.582146 4.447835 10.077642 8.331098 -0.328277 -6.074988 0.562859 -10.980479 -41.163675 2.096503 28.392517 59.768227 26.428502 -8.863925 37.598668 -0.636660 0.565427 -17.746456 -6.462496
-14.163236 57.661468 67.664629 175.522287 -36.399774 -0.272536 2.610210 20.431468 5.565442 0.224277 2.742413 0.498580 0.424869 4.484175 0.813592 2.026597 17.690714 3.529738 -0.726485 23.392413 -2.392661 -0.694964 7.661089 -4.114919 8.099319 2.749342 -3.401463 26.757628 -37.306838 -20.560921 -167.233369 -45.620183 -173.243880 7.380957 4.195326 -31.484073 -7.097346 -3.785764 -2.751090 -7.714309 -33.538769 -3.624497 169.691036 -50.592332 171.494688 -7.820859 -3.198378 15.738784 10.832475 -35.818900 -5.945517 -5.780756 68.062892 -5.556382 4.443843 10.081086 8.325861 -0.324914 -6.080761 0.562449 -10.978925 -41.169625 2.105679 28.409630 59.773087 26.474079 -8.883141 37.561877 -0.672184 0.568699 -17.724048 -6.456142
-14.164562 57.661766 67.660921 175.517099 -36.379839 -0.275154 2.599242 20.413375 5.565543 0.220544 2.734743 0.500997 0.425961 4.483198 0.813424 2.026326 17.681264 3.534907 -0.727868 23.382322 -2.400899 -0.688552 7.659179 -4.140774 8.103068 2.730613 -3.413062 26.744505 -37.314213 -20.557819 -167.267272 -45.600414 -173.215911 7.389629 4.200513 -31.460550 -7.094315 -3.788366 -2.754156 -7.762268 -33.560364 -3.583029 169.694887 -50.574498 171.493808 -7.823920 -3.194992 15.691547 10.842768 -35.838428 -5.957939 -5.760821 68.067344 -5.523570 4.439273 10.085533 8.320112 -0.320078 -6.088295 0.562555 -10.974198 -41.189037 2.101882 28.419328 59.775616 26.504698 -8.875535 37.543188 -0.677022 0.556580 -17.710672 -6.456058
-14.170724 57.661800 67.656949 175.480235 -36.357992 -0.237405 2.580130 20.386055 5.538657 0.243741 2.736835 0.498200 0.397701 4.456491 0.821162 2.059059 17.710307 3.524295 -0.729669 23.373505 -2.402350 -0.683284 7.637669 -4.165408 8.101041 2.696474 -3.417677 26.728352 -37.325764 -20.556338 -167.283163 -45.576681 -173.193522 7.402792 4.214413 -31.434615 -7.112245 -3.823267 -2.730472 -7.797518 -33.568533 -3.559434 169.698553 -50.564819 171.494869 -7.828450 -3.184025 15.644328 10.929828 -35.882392 -6.013967 -5.788210 68.105125 -5.497559 4.367523 10.151683 8.252395 -0.246570 -6.150659 0.597506 -10.924996 -41.208877 2.047230 28.449867 59.763105 26.563909 -8.823204 37.521995 -0.641838 0.516956 -17.692005 -6.473478
-14.173740 57.663655 67.650544 175.451622 -36.355610 -0.230186 2.596145 20.379869 5.546430 0.232747 2.727263 0.500016 0.406710 4.459767 0.819823 2.044604 17.686658 3.534908 -0.729612 23.366443 -2.415375 -0.671089 7.665434 -4.188851 8.117534 2.692771 -3.436071 26.711055 -37.328296 -20.548349 -167.307823 -45.543386 -173.162170 7.379457 4.251267 -31.426774 -7.111341 -3.832124 -2.724373 -7.841725 -33.580093 -3.534721 169.726380 -50.582033 171.515150 -7.820835 -3.193064 15.562983 10.957639 -35.883772 -6.019008 -5.778880 68.108700 -5.475811 4.366988 10.152028 8.251737 -0.243277 -6.155341 0.596715 -10.913741 -41.210154 2.043274 28.455395 59.779720 26.588037 -8.782011 37.484628 -0.631079 0.487453 -17.665257 -6.477159
-14.168961 57.662434 67.648957 175.417685 -36.322663 -0.276674 2.637272 20.339942 5.612818 0.221200 2.717940 0.502414 0.415878 4.462766 0.818016 2.026348 17.661049 3.544893 -0.725646 23.363235 -2.428377 -0.658191 7.693084 -4.212792 8.141139 2.691961 -3.455300 26.694489 -37.305833 -20.526711 -167.308909 -45.536938 -173.157859 7.456684 4.214329 -31.364166 -7.130579 -3.898528 -2.689063 -7.837505 -33.539000 -3.553931 169.754602 -50.600517 171.533882 -7.810704 -3.194610 15.477644 10.953492 -35.916376 -5.951025 -5.789144 68.077471 -5.440747 4.285361 10.185059 8.175311 -0.168245 -6.155096 0.625575 -10.955441 -41.231084 2.128511 28.428599 59.803040 26.574425 -8.695721 37.443386 -0.589585 0.444307 -17.635151 -6.490788
